<svg xmlns="http://www.w3.org/2000/svg" width="1400" height="900" viewBox="0 0 1400 900">
  <rect width="1400" height="900" fill="#fff"/>
  <rect x="200" y="110" width="440" height="300" rx="22" fill="#F8EEFB" stroke="#7B3FA0" stroke-width="4"/>
  <g transform="translate(360.0,165.0) scale(5.000)" fill="none" stroke="#7B3FA0" stroke-width="1.6" stroke-linecap="round" stroke-linejoin="round" ><path d="M21 16V8a2 2 0 0 0-1-1.73l-7-4a2 2 0 0 0-2 0l-7 4A2 2 0 0 0 3 8v8a2 2 0 0 0 1 1.73l7 4a2 2 0 0 0 2 0l7-4A2 2 0 0 0 21 16z" />
</g><circle cx="420.0" cy="225" r="9" fill="#7B3FA0"/>
  <text x="420.0" y="340" text-anchor="middle" font-size="26" font-weight="bold" fill="#222" font-family="DejaVu Sans, Helvetica, Arial, sans-serif">AI drug discovery</text>
  <text x="420.0" y="372" text-anchor="middle" font-size="17" fill="#555" font-family="DejaVu Sans, Helvetica, Arial, sans-serif">generative models · virtual screening · MD</text>
  <rect x="760" y="110" width="440" height="300" rx="22" fill="#F2FAF5" stroke="#3FA36B" stroke-width="4"/>
  <g transform="translate(880.0,165.0) scale(5.000)" fill="none" stroke="#3FA36B" stroke-width="1.6" stroke-linecap="round" stroke-linejoin="round" ><path d="M12 18V5" />
  <path d="M15 13a4.17 4.17 0 0 1-3-4 4.17 4.17 0 0 1-3 4" />
  <path d="M17.598 6.5A3 3 0 1 0 12 5a3 3 0 1 0-5.598 1.5" />
  <path d="M17.997 5.125a4 4 0 0 1 2.526 5.77" />
  <path d="M18 18a4 4 0 0 0 2-7.464" />
  <path d="M19.967 17.483A4 4 0 1 1 12 18a4 4 0 1 1-7.967-.517" />
  <path d="M6 18a4 4 0 0 1-2-7.464" />
  <path d="M6.003 5.125a4 4 0 0 0-2.526 5.77" />
</g><g transform="translate(1050.0,225)"><g fill="none" stroke="#3FA36B" stroke-width="6" stroke-linejoin="round"><path id="tooth28" d="M-6,-40 h11 v14 h-11 z"/><use href="#tooth28" transform="rotate(45)"/><use href="#tooth28" transform="rotate(90)"/><use href="#tooth28" transform="rotate(135)"/><use href="#tooth28" transform="rotate(180)"/><use href="#tooth28" transform="rotate(225)"/><use href="#tooth28" transform="rotate(270)"/><use href="#tooth28" transform="rotate(315)"/><circle r="28"/></g><text y="8" text-anchor="middle" font-size="22" font-weight="bold" fill="#222" font-family="DejaVu Sans, Helvetica, Arial, sans-serif">RL</text></g>
  <text x="980.0" y="340" text-anchor="middle" font-size="26" font-weight="bold" fill="#222" font-family="DejaVu Sans, Helvetica, Arial, sans-serif">Hippocampus × Reinforcement learning</text>
  <text x="980.0" y="372" text-anchor="middle" font-size="17" fill="#555" font-family="DejaVu Sans, Helvetica, Arial, sans-serif">successor representation · neuromodulation</text>
  <rect x="200" y="530" width="440" height="300" rx="22" fill="#FFF6E9" stroke="#F0A94A" stroke-width="4"/>
  <g transform="translate(360.0,585.0) scale(5.000)" fill="none" stroke="#F0A94A" stroke-width="1.6" stroke-linecap="round" stroke-linejoin="round" ><path d="M22 12h-2.48a2 2 0 0 0-1.93 1.46l-2.35 8.36a.25.25 0 0 1-.48 0L9.24 2.18a.25.25 0 0 0-.48 0l-2.35 8.36A2 2 0 0 1 4.49 12H2" />
</g>
  <text x="420.0" y="760" text-anchor="middle" font-size="26" font-weight="bold" fill="#222" font-family="DejaVu Sans, Helvetica, Arial, sans-serif">Brain data &amp; neuropsychiatry</text>
  <text x="420.0" y="792" text-anchor="middle" font-size="17" fill="#555" font-family="DejaVu Sans, Helvetica, Arial, sans-serif">electrophysiology · in-silico epilepsy · scRNA-seq</text>
  <rect x="760" y="530" width="440" height="300" rx="22" fill="#EAF7FB" stroke="#2A9DBD" stroke-width="4"/>
  <g transform="translate(920.0,585.0) scale(5.000)" fill="none" stroke="#2A9DBD" stroke-width="1.6" stroke-linecap="round" stroke-linejoin="round" ><path d="M11 2v2" />
  <path d="M5 2v2" />
  <path d="M5 3H4a2 2 0 0 0-2 2v4a6 6 0 0 0 12 0V5a2 2 0 0 0-2-2h-1" />
  <path d="M8 15a6 6 0 0 0 12 0v-3" />
  <circle cx="20" cy="10" r="2" />
</g>
  <text x="980.0" y="760" text-anchor="middle" font-size="26" font-weight="bold" fill="#222" font-family="DejaVu Sans, Helvetica, Arial, sans-serif">AI clinical decision support</text>
  <text x="980.0" y="792" text-anchor="middle" font-size="17" fill="#555" font-family="DejaVu Sans, Helvetica, Arial, sans-serif">risk prediction · procedure planning · clinical LLMs</text>
  <!-- axes -->
  <g fill="none" stroke="#222" stroke-width="6" stroke-linecap="round" stroke-linejoin="round">
    <line x1="180" y1="470" x2="1220" y2="470"/><path d="M 1195 454 L 1220 470 L 1195 486"/><path d="M 205 454 L 180 470 L 205 486"/>
    <line x1="700" y1="80" x2="700" y2="860"/><path d="M 684 105 L 700 80 L 716 105"/><path d="M 684 835 L 700 860 L 716 835"/>
  </g>
  <g font-size="22" font-weight="bold" fill="#222" font-family="DejaVu Sans, Helvetica, Arial, sans-serif">
    <text x="120" y="478" text-anchor="middle">Molecule</text>
    <text x="1290" y="478" text-anchor="middle">Behavior</text>
    <text x="700" y="58" text-anchor="middle">Computational model</text>
    <text x="700" y="890" text-anchor="middle">Experimental &amp; clinical data</text>
  </g>
</svg>